<svg width="135" height="21" viewBox="0 0 135 21" fill="none" xmlns="http://www.w3.org/2000/svg">
<path d="M-6.16908e-06 20.188V1.70799H8.98799C11.2653 1.72665 12.9453 2.16532 14.028 3.02399C15.1107 3.86399 15.652 5.08665 15.652 6.69199C15.652 7.73732 15.344 8.64265 14.728 9.40799C14.112 10.1547 13.1693 10.6307 11.9 10.836V10.864C13.3187 11.0507 14.3733 11.5453 15.064 12.348C15.7733 13.132 16.128 14.084 16.128 15.204C16.128 16.7907 15.568 18.0227 14.448 18.9C13.328 19.7587 11.648 20.188 9.40799 20.188H-6.16908e-06ZM4.64799 16.8H8.59599C9.47333 16.8 10.1267 16.6227 10.556 16.268C10.9853 15.9133 11.2 15.4 11.2 14.728C11.2 14.0747 10.9853 13.58 10.556 13.244C10.1267 12.8893 9.47333 12.712 8.59599 12.712H4.64799V16.8ZM4.64799 9.26799H8.14799C9.86533 9.26799 10.724 8.59599 10.724 7.25199C10.724 5.90799 9.86533 5.23599 8.14799 5.23599H4.64799V9.26799ZM25.4686 5.90799C26.9433 5.90799 28.2313 6.19732 29.3326 6.77599C30.4526 7.33599 31.3206 8.16665 31.9366 9.26799C32.5713 10.3507 32.8886 11.6573 32.8886 13.188C32.8886 14.7187 32.5713 16.0347 31.9366 17.136C31.3206 18.2187 30.4526 19.0493 29.3326 19.628C28.2313 20.188 26.9433 20.468 25.4686 20.468C24.0313 20.468 22.7526 20.188 21.6326 19.628C20.5126 19.0493 19.6353 18.2187 19.0006 17.136C18.3846 16.0347 18.0766 14.7187 18.0766 13.188C18.0766 11.6573 18.3846 10.3507 19.0006 9.26799C19.6353 8.16665 20.5126 7.33599 21.6326 6.77599C22.7526 6.19732 24.0313 5.90799 25.4686 5.90799ZM25.4686 9.29599C24.9273 9.29599 24.4606 9.42665 24.0686 9.68799C23.6766 9.94932 23.378 10.3693 23.1726 10.948C22.9673 11.5267 22.8646 12.2733 22.8646 13.188C22.8646 14.1027 22.9673 14.8493 23.1726 15.428C23.378 15.988 23.6766 16.408 24.0686 16.688C24.4606 16.9493 24.9273 17.08 25.4686 17.08C26.0286 17.08 26.5046 16.9493 26.8966 16.688C27.2886 16.408 27.5873 15.988 27.7926 15.428C27.998 14.8493 28.1006 14.1027 28.1006 13.188C28.1006 12.2733 27.998 11.5267 27.7926 10.948C27.5873 10.3693 27.2886 9.94932 26.8966 9.68799C26.5046 9.42665 26.0286 9.29599 25.4686 9.29599ZM42.2303 5.90799C43.705 5.90799 44.993 6.19732 46.0943 6.77599C47.2143 7.33599 48.0823 8.16665 48.6983 9.26799C49.333 10.3507 49.6503 11.6573 49.6503 13.188C49.6503 14.7187 49.333 16.0347 48.6983 17.136C48.0823 18.2187 47.2143 19.0493 46.0943 19.628C44.993 20.188 43.705 20.468 42.2303 20.468C40.793 20.468 39.5143 20.188 38.3943 19.628C37.2743 19.0493 36.397 18.2187 35.7623 17.136C35.1463 16.0347 34.8383 14.7187 34.8383 13.188C34.8383 11.6573 35.1463 10.3507 35.7623 9.26799C36.397 8.16665 37.2743 7.33599 38.3943 6.77599C39.5143 6.19732 40.793 5.90799 42.2303 5.90799ZM42.2303 9.29599C41.689 9.29599 41.2223 9.42665 40.8303 9.68799C40.4383 9.94932 40.1397 10.3693 39.9343 10.948C39.729 11.5267 39.6263 12.2733 39.6263 13.188C39.6263 14.1027 39.729 14.8493 39.9343 15.428C40.1397 15.988 40.4383 16.408 40.8303 16.688C41.2223 16.9493 41.689 17.08 42.2303 17.08C42.7903 17.08 43.2663 16.9493 43.6583 16.688C44.0503 16.408 44.349 15.988 44.5543 15.428C44.7597 14.8493 44.8623 14.1027 44.8623 13.188C44.8623 12.2733 44.7597 11.5267 44.5543 10.948C44.349 10.3693 44.0503 9.94932 43.6583 9.68799C43.2663 9.42665 42.7903 9.29599 42.2303 9.29599ZM67.7001 6.18799L60.9801 13.356L60.0841 13.608L56.0801 18.088L56.0521 13.216L62.4081 6.18799H67.7001ZM57.0881 0.251988V20.188H52.3281V0.251988H57.0881ZM61.7081 10.388L68.0081 20.188H62.7441L58.6001 13.188L61.7081 10.388ZM93.7753 1.70799L87.2233 20.188H81.5673L74.9873 1.70799H80.0553L83.4433 12.88L84.4513 16.52L85.4313 12.936L88.8753 1.70799H93.7753ZM98.0206 4.56399C97.0499 4.56399 96.3406 4.38665 95.8926 4.03199C95.4632 3.65865 95.2486 3.07999 95.2486 2.29599C95.2486 1.49332 95.4632 0.914654 95.8926 0.559987C96.3406 0.186654 97.0499 -1.21593e-05 98.0206 -1.21593e-05C98.9726 -1.21593e-05 99.6726 0.186654 100.121 0.559987C100.569 0.914654 100.793 1.49332 100.793 2.29599C100.793 3.07999 100.569 3.65865 100.121 4.03199C99.6726 4.38665 98.9726 4.56399 98.0206 4.56399ZM100.401 6.18799V20.188H95.6406V6.18799H100.401ZM112.777 20.468C111.862 20.468 111.05 20.2627 110.341 19.852C109.65 19.4413 109.081 18.8813 108.633 18.172C108.185 17.444 107.896 16.6227 107.765 15.708L108.213 15.12L107.961 20.188H103.789V0.251988H108.549V10.584L108.101 9.91199C108.362 8.75465 108.894 7.80265 109.697 7.05599C110.5 6.29065 111.582 5.90799 112.945 5.90799C114.028 5.90799 114.989 6.19732 115.829 6.77599C116.688 7.35465 117.35 8.19465 117.817 9.29599C118.302 10.3787 118.545 11.6947 118.545 13.244C118.545 14.756 118.302 16.0533 117.817 17.136C117.332 18.2187 116.66 19.0493 115.801 19.628C114.942 20.188 113.934 20.468 112.777 20.468ZM111.125 16.968C111.946 16.968 112.59 16.6693 113.057 16.072C113.524 15.456 113.757 14.4947 113.757 13.188C113.757 11.8813 113.524 10.9293 113.057 10.332C112.59 9.71599 111.946 9.40799 111.125 9.40799C110.584 9.40799 110.117 9.56665 109.725 9.88399C109.352 10.1827 109.062 10.612 108.857 11.172C108.652 11.732 108.549 12.4133 108.549 13.216C108.549 14.0187 108.652 14.7 108.857 15.26C109.062 15.82 109.361 16.2493 109.753 16.548C110.145 16.828 110.602 16.968 111.125 16.968ZM128.176 20.468C126.626 20.468 125.282 20.1787 124.144 19.6C123.024 19.0213 122.156 18.1907 121.54 17.108C120.924 16.0253 120.616 14.7187 120.616 13.188C120.616 11.6573 120.924 10.3507 121.54 9.26799C122.156 8.18532 123.014 7.35465 124.116 6.77599C125.236 6.19732 126.514 5.90799 127.952 5.90799C129.426 5.90799 130.677 6.19732 131.704 6.77599C132.749 7.33599 133.542 8.11999 134.084 9.12799C134.625 10.1173 134.896 11.256 134.896 12.544C134.896 12.88 134.886 13.216 134.868 13.552C134.849 13.888 134.821 14.168 134.784 14.392H123.696V11.844H132.684L130.416 12.712C130.416 11.592 130.21 10.7333 129.8 10.136C129.408 9.53865 128.792 9.23999 127.952 9.23999C127.354 9.23999 126.841 9.37999 126.412 9.65999C126.001 9.93999 125.684 10.3787 125.46 10.976C125.254 11.5733 125.152 12.3387 125.152 13.272C125.152 14.1867 125.273 14.9333 125.516 15.512C125.758 16.072 126.104 16.4827 126.552 16.744C127 16.9867 127.541 17.108 128.176 17.108C128.885 17.108 129.445 16.968 129.856 16.688C130.285 16.408 130.602 16.016 130.808 15.512L134.616 16.772C134.354 17.5747 133.897 18.256 133.244 18.816C132.609 19.3573 131.844 19.768 130.948 20.048C130.07 20.328 129.146 20.468 128.176 20.468Z" fill="#131313"/>
</svg>
